<svg width="33" height="32" viewBox="0 0 33 32" fill="none" xmlns="http://www.w3.org/2000/svg">
<path d="M16.0229 0.396014C7.18395 0.396014 0.0229492 7.74402 0.0229492 16.8001C0.0229492 24.0518 4.60695 30.1982 10.9599 32.3666C11.763 32.5214 12.053 32.0139 12.053 31.5751C12.053 31.1855 12.044 30.1551 12.038 28.7874C7.58495 29.7757 6.64695 26.5821 6.64695 26.5821C5.91795 24.6915 4.86595 24.184 4.86595 24.184C3.41795 23.17 4.98095 23.1916 4.98095 23.1916C6.58495 23.3033 7.42895 24.8781 7.42895 24.8781C8.85594 27.3879 11.173 26.6621 12.0899 26.2396C12.23 25.1826 12.6469 24.4557 13.101 24.0507C9.54897 23.6396 5.81395 22.2298 5.81395 15.944C5.81395 14.1488 6.43395 12.6868 7.45895 11.5385C7.28195 11.1274 6.73995 9.4562 7.59995 7.19654C7.59995 7.19654 8.93899 6.75875 11.9999 8.87901C13.3039 8.51538 14.6487 8.32892 15.9999 8.32431C17.3599 8.33353 18.719 8.51601 19.9999 8.87901C23.0429 6.75875 24.381 7.19654 24.381 7.19654C25.2399 9.4562 24.6979 11.1264 24.542 11.5385C25.557 12.6868 26.1769 14.1498 26.1769 15.944C26.1769 22.2442 22.437 23.6335 18.8809 24.0343C19.437 24.5254 19.958 25.5353 19.958 27.068C19.958 29.2621 19.9379 31.0296 19.9379 31.5638C19.9379 31.9903 20.2179 32.5029 21.0419 32.3379C27.4419 30.192 32.021 24.0405 32.021 16.7991C32.021 7.743 24.86 0.394989 16.021 0.394989L16.0229 0.396014Z" fill="#E3E3E3"/>
</svg>
