<svg width="33" height="32" viewBox="0 0 33 32" fill="none" xmlns="http://www.w3.org/2000/svg">
<path fill-rule="evenodd" clip-rule="evenodd" d="M3.56697 32H28.4559C30.4195 32 32.0114 30.4081 32.0114 28.4444V3.55556C32.0114 1.59188 30.4195 0 28.4559 0H3.56697C1.60329 0 0.0114136 1.59188 0.0114136 3.55556V28.4444C0.0114136 30.4081 1.60329 32 3.56697 32ZM27.567 27.5555H22.8184V19.4675C22.8184 17.25 21.9758 16.0108 20.2206 16.0108C18.3112 16.0108 17.3137 17.3004 17.3137 19.4675V27.5555H12.7373V12.1481H17.3137V14.2235C17.3137 14.2235 18.6897 11.6774 21.9592 11.6774C25.2273 11.6774 27.567 13.673 27.567 17.8005V27.5555ZM7.27779 10.1306C5.71899 10.1306 4.45586 8.85756 4.45586 7.28749C4.45586 5.71742 5.71899 4.44438 7.27779 4.44438C8.83659 4.44438 10.099 5.71742 10.099 7.28749C10.099 8.85756 8.83659 10.1306 7.27779 10.1306ZM4.91477 27.5555H9.6867V12.1481H4.91477V27.5555Z" fill="#E3E3E3"/>
</svg>
