<svg width="27" height="27" viewBox="0 0 27 27" fill="none" xmlns="http://www.w3.org/2000/svg">
<path d="M24.2686 26.3333H2.93526C2.22802 26.3333 1.54974 26.0524 1.04965 25.5523C0.549548 25.0522 0.268596 24.3739 0.268596 23.6667V9.06531C0.29076 8.62462 0.420299 8.19597 0.645944 7.8167C0.87159 7.43742 1.18649 7.1191 1.56326 6.88931L12.2299 0.489337C12.6442 0.240926 13.1182 0.109711 13.6012 0.109711C14.0843 0.109711 14.5583 0.240926 14.9726 0.489337L25.6393 6.88931C26.4406 7.37335 26.9326 8.24001 26.9353 9.17601V23.6667C26.9353 24.3739 26.6543 25.0522 26.1542 25.5523C25.6541 26.0524 24.9759 26.3333 24.2686 26.3333ZM2.93526 10.1573V23.6667H24.2686V10.1573L13.6019 17.268L2.93526 10.1573ZM13.6019 2.776L4.68993 8.12268L13.6019 14.064L22.5126 8.12268L13.6019 2.776Z" fill="#E3E3E3"/>
</svg>
