<?xml version="1.0" standalone="no"?>
<!DOCTYPE svg PUBLIC "-//W3C//DTD SVG 20010904//EN"
 "http://www.w3.org/TR/2001/REC-SVG-20010904/DTD/svg10.dtd">
<svg version="1.0" xmlns="http://www.w3.org/2000/svg"
 width="512.000000pt" height="512.000000pt" viewBox="0 0 512.000000 512.000000"
 preserveAspectRatio="xMidYMid meet">

<g transform="translate(0.000000,512.000000) scale(0.100000,-0.100000)"
fill="#000000" stroke="none">
<path d="M4299 4425 c-27 -14 -30 -21 -364 -665 -64 -123 -118 -226 -120 -229
-3 -2 -167 101 -367 229 -199 129 -377 239 -397 246 -39 13 -83 5 -114 -23
-46 -42 -47 -52 -47 -593 0 -482 -1 -511 -17 -506 -10 3 -243 55 -518 116
-548 122 -537 121 -603 65 -17 -14 -33 -25 -36 -25 -3 0 -103 74 -221 165
-118 90 -228 171 -244 180 -17 8 -49 15 -72 15 -77 0 -734 -70 -762 -81 -64
-26 -107 -109 -93 -181 8 -44 164 -259 200 -276 32 -16 80 -2 96 29 21 39 10
71 -61 171 -39 56 -67 104 -62 108 13 11 681 72 695 64 18 -11 440 -334 456
-348 10 -10 -5 -63 -79 -272 -50 -142 -94 -263 -99 -267 -4 -5 -108 11 -231
35 l-222 43 -109 150 c-59 83 -116 156 -125 163 -59 43 -147 -34 -112 -100 33
-63 235 -332 262 -348 17 -11 122 -36 253 -61 139 -27 224 -48 224 -55 0 -6
-57 -171 -126 -365 -107 -303 -125 -360 -121 -399 7 -63 49 -100 114 -100 38
0 1223 170 1286 184 14 3 99 -92 343 -385 179 -215 340 -399 357 -409 28 -18
51 -20 203 -20 161 0 173 1 204 23 46 30 72 78 72 131 0 30 -34 136 -111 352
-61 169 -110 312 -109 316 2 4 73 -39 158 -97 85 -58 171 -110 191 -116 31
-10 57 -7 161 16 67 15 135 34 149 41 39 19 77 69 85 109 13 71 -1 95 -185
337 l-179 234 14 174 c8 95 16 175 18 178 3 2 166 -10 363 -27 197 -17 372
-31 390 -31 44 0 100 50 109 96 5 28 -8 73 -66 235 -76 209 -89 229 -143 229
-34 0 -77 -40 -77 -72 0 -13 25 -90 55 -172 30 -82 54 -150 52 -151 -1 -1
-121 9 -267 22 -146 13 -458 40 -694 61 l-429 37 327 363 327 362 217 0 217 0
45 -127 c55 -154 68 -173 120 -173 30 0 43 6 59 26 12 15 21 34 21 44 0 9 -23
82 -51 161 l-51 144 11 380 c6 209 11 427 11 484 l0 103 -34 34 c-28 28 -41
34 -77 34 -24 -1 -56 -7 -70 -15z m11 -576 c-5 -156 -10 -301 -10 -321 l0 -38
-160 0 c-88 0 -160 2 -160 4 0 11 333 647 336 643 3 -2 0 -132 -6 -288z m-937
-230 c171 -111 320 -207 330 -214 16 -11 -12 -46 -294 -359 -171 -190 -315
-343 -319 -341 -5 3 -15 26 -24 52 -14 40 -16 116 -16 555 0 279 2 508 5 508
3 0 146 -91 318 -201z m-507 -901 c5 -6 -262 -930 -276 -957 -5 -9 -46 33
-135 140 -70 85 -138 164 -152 177 -51 46 -133 13 -133 -54 0 -27 24 -61 145
-206 132 -158 142 -174 122 -180 -37 -11 -1086 -162 -1091 -157 -5 5 360 1048
369 1058 6 6 -5 18 149 -172 74 -91 139 -162 154 -168 31 -12 78 4 92 32 26
47 14 69 -161 286 l-171 212 33 88 c17 48 35 97 40 109 7 21 16 19 509 -91
275 -62 503 -115 506 -117z m425 -1062 c159 -444 289 -810 289 -812 0 -2 -55
-4 -122 -3 l-123 0 -295 355 c-162 195 -303 364 -312 377 -17 21 -13 36 113
467 71 245 132 452 135 460 7 19 -26 109 315 -844z m224 763 c138 -12 251 -22
253 -24 4 -4 -22 -335 -27 -344 -8 -11 -330 -201 -342 -201 -5 0 -9 2 -9 4 0
2 -47 135 -105 296 -58 160 -105 294 -105 296 0 3 19 3 43 0 23 -3 155 -15
292 -27z m435 -721 c80 -105 146 -196 148 -203 2 -7 -34 -19 -94 -32 l-97 -21
-196 135 c-108 74 -197 137 -198 141 -3 7 265 170 282 171 6 0 75 -86 155
-191z"/>
</g>
</svg>
